<?xml version="1.0" encoding="utf-8"?>
<!-- Generator: Adobe Illustrator 19.2.0, SVG Export Plug-In . SVG Version: 6.00 Build 0)  -->
<svg version="1.1" xmlns="http://www.w3.org/2000/svg" xmlns:xlink="http://www.w3.org/1999/xlink" x="0px" y="0px"
	 viewBox="0 0 256 256" style="enable-background:new 0 0 256 256;" xml:space="preserve">
<style type="text/css">
	.st0{display:none;}
	.st1{display:inline;fill:#3F3F3F;}
	.st2{fill:#E5E5E5;}
	.st3{fill:#CE7A00;}
	.st4{display:inline;fill:#D81D1D;}
	.st5{font-family:'HelveticaNeueLTCom-Blk';}
	.st6{font-size:120.9562px;}
</style>
<g id="Layer_2" class="st0">
	<rect class="st1" width="256" height="256"/>
</g>
<g id="Layer_3">
	<path class="st2" d="M227,179.2H33c-11,0-20-9-20-20V48c0-11,9-20,20-20h194c11,0,20,9,20,20v111.2C247,170.2,238,179.2,227,179.2z
		"/>
	<polygon class="st2" points="170.8,179.2 153.7,227.1 207.5,179.2 	"/>
</g>
<g id="Layer_5">
	<g>
		<path class="st3" d="M28.9,102.8c0-4.3,0.3-8.3,1-12c0.6-3.7,2-7.1,4.1-10.2s5.1-5.6,9-7.7c3.9-2.1,9.1-3.6,15.5-4.6v14
			c-4.8,0.5-8.2,2.1-10.1,4.8c-1.9,2.7-2.9,6.1-3.1,10.3h13.2v31.8H28.9V102.8z M68,102.8c0-4.3,0.3-8.3,1-12
			c0.6-3.7,2-7.1,4.1-10.2s5.1-5.6,9-7.7c3.9-2.1,9.1-3.6,15.5-4.6v14c-4.8,0.5-8.2,2.1-10.1,4.8c-1.9,2.7-2.9,6.1-3.1,10.3h13.2
			v31.8H68V102.8z"/>
		<path class="st3" d="M195.4,94.6c0,4.3-0.3,8.3-1,12c-0.7,3.8-2.1,7.1-4.2,10.2c-2.1,3.1-5.1,5.6-8.9,7.7c-3.9,2.1-9,3.6-15.4,4.6
			v-14c4.8-0.5,8.2-2.1,10.1-4.8c1.9-2.7,2.9-6.1,3.1-10.3h-13.2V68.3h29.6V94.6z M234.6,94.6c0,4.3-0.3,8.3-1,12
			c-0.7,3.8-2.1,7.1-4.2,10.2c-2.1,3.1-5.1,5.6-8.9,7.7c-3.9,2.1-9,3.6-15.4,4.6v-14c4.8-0.5,8.2-2.1,10.1-4.8
			c1.9-2.7,2.9-6.1,3.1-10.3h-13.2V68.3h29.6V94.6z"/>
	</g>
</g>
<g id="Layer_4" class="st0">
	<text transform="matrix(1 0 0 1 85.7261 144.6777)" class="st4 st5 st6">X</text>
</g>
</svg>
