<?xml version="1.0" encoding="utf-8"?>
<!-- Generator: Adobe Illustrator 19.2.0, SVG Export Plug-In . SVG Version: 6.00 Build 0)  -->
<svg version="1.1" xmlns="http://www.w3.org/2000/svg" xmlns:xlink="http://www.w3.org/1999/xlink" x="0px" y="0px"
	 viewBox="0 0 265 265" style="enable-background:new 0 0 265 265;" xml:space="preserve">
<style type="text/css">
	.st0{fill:#FFFFFF;}
	.st1{fill:#00A651;}
	.st2{fill:#8DC63F;}
</style>
<g id="Layer_1">
	<g>
		<path d="M216.7,140.3c-7.3-0.7-9.7,2.4-9.1,9c2.7,29.4,2.7,17.9,6,47.3c1.7,15.3,0.9,19-11.6,25.5c0.5-6.5,2.3-13.1,1.3-19.4
			c-2.1-12.7-4.6-14-6.7-27.8c-1.6-10.8,0.2-18.9,0.2-29.7c-7-1-10.3,0.2-10,6.7c1,19.2-0.7-0.6,0.7,18.5
			c0.9,11.8,3.2,21.4,4.9,33.1c-0.8,0.1-1.7,0.2-2.5,0.3c-9.8-31.9-6.2-24.2-7.7-54.6c-24.1,0-47.3,1.1-70.2-0.3
			c-23.2-1.4-46.3-5.1-69.7-7.8c0,0.1-0.5,1.1-0.5,2c-0.5,37.2-7,25.7-14.1,58.6c-1.1,5.1,2.2,13.5,6.3,16.9
			c7.6,6.2,16.8,11.4,26.2,14.4c38.3,12.3,77.5,13.4,116.6,4.6c14.3-3.2,28-9.9,41.3-16.3c6.7-3.3,12-10.2,9.9-18.6
			C219.3,168.8,216.8,175.4,216.7,140.3z"/>
	</g>
	<path class="st0" d="M130.2,80.4"/>
</g>
<g id="Layer_2">
	<g id="Layer_3">
	</g>
	<path d="M133.4,85.8C61.4,85.8-0.1,90-0.1,110.7c0,6.8,15.3,12.5,26.5,18c22.6,11.2,59.1,10.7,107,16c35.7,4,70.4-3.7,96.9-11
		c20.7-5.7,34.7,0.7,34.7-9C265.1,104,205.5,85.8,133.4,85.8z M126.9,133.2c-56.6,0-91.5-10.9-91.5-24.3c0-13.4,34.9-13.3,91.5-13.3
		s97.5,3.9,97.5,17.3C224.4,126.3,183.6,133.2,126.9,133.2z"/>
	<path class="st1" d="M106.9,137.2c0,0,16.8-58.5,45.1-93.2c2.5-3,3.3-3.5,8.8-4c3.4-1.7,4.3-3.1,6.8-2.4
		c60.7,16.8,60.7,16.8,60.7,16.8s-7.4,10.9-16.2,27.4c-1.2,2.2-19.5-4-20.7-1.6c-1.5,3,17.5,9.5,16,12.7
		c-5.7,12-14.5,30.6-18.3,44.3C155.6,137.2,106.9,137.2,106.9,137.2z"/>
	<path class="st2" d="M174.1,110.4c0,13.7-13.4,24.8-23.6,24.8s-15.8-11.1-15.8-24.8s13.4-24.8,25.9-24.8
		C170.8,85.7,174.1,96.7,174.1,110.4z"/>
</g>
<g id="Layer_4">
	<path d="M106.9,132.5c0,0,68.3,2,84.5-2.7c0,6.9-4.7,10.5-4.7,10.5h-83.1L106.9,132.5z"/>
</g>
</svg>
