<?xml version="1.0" encoding="utf-8"?>
<!-- Generator: Adobe Illustrator 19.2.0, SVG Export Plug-In . SVG Version: 6.00 Build 0)  -->
<svg version="1.1" id="Layer_1" xmlns="http://www.w3.org/2000/svg" xmlns:xlink="http://www.w3.org/1999/xlink" x="0px" y="0px"
	 viewBox="0 0 263 263" style="enable-background:new 0 0 263 263;" xml:space="preserve">
<style type="text/css">
	.st0{fill:#E0E0E0;}
</style>
<title>mops_wiki</title>
<path class="st0" d="M96.2,74.6H52.1C51.9,53,59.3,35.1,74.4,21s34.9-21.2,59.4-21.2c15.8,0,29.3,2.9,40.4,8.8
	c11.1,5.8,20.3,14.5,26.7,25.3c6.5,10.4,10,22.4,10,34.7c0,6.6-1.1,13.2-3.2,19.5c-2.4,7-5.8,13.6-10.1,19.7
	c-2.7,3.9-9.1,10.5-19.4,19.9c-9.8,8.9-15.9,15.1-18.4,18.8c-2.8,4.5-4.9,9.4-6.2,14.6c-1.7,6.1-2.8,14.5-3.2,25.3h-45.6l-0.2-7.6
	c0-15,2.8-28.7,8.3-41s14.4-23.8,26.8-34.6c11.9-10.4,19.1-17.6,21.5-21.5c2.5-4.2,3.8-8.9,3.7-13.8c0-7.2-3-13.3-9-18.3
	s-14.1-7.5-24.1-7.5c-10.3,0-18.8,3-25.4,9.1S96.4,65,96.2,74.6z M128.4,205.4c7.9-0.2,15.4,2.9,21,8.4c5.6,5.3,8.8,12.7,8.7,20.4
	c0.1,7.7-3.1,15.1-8.7,20.4c-5.4,5.6-12.9,8.6-20.7,8.5c-16,0.1-29.1-12.9-29.1-28.9c0,0,0,0,0-0.1c0-15.9,12.8-28.8,28.7-28.8
	C128.3,205.4,128.4,205.4,128.4,205.4z"/>
</svg>
