<?xml version="1.0" encoding="utf-8"?>
<!-- Generator: Adobe Illustrator 16.0.0, SVG Export Plug-In . SVG Version: 6.00 Build 0)  -->
<!DOCTYPE svg PUBLIC "-//W3C//DTD SVG 1.1//EN" "http://www.w3.org/Graphics/SVG/1.1/DTD/svg11.dtd">
<svg version="1.1" id="Layer_3" xmlns="http://www.w3.org/2000/svg" xmlns:xlink="http://www.w3.org/1999/xlink" x="0px" y="0px"
	 width="256px" height="256px" viewBox="0 0 256 256" enable-background="new 0 0 256 256" xml:space="preserve">
<g id="Layer_3">
	<g>
		<path fill-rule="evenodd" clip-rule="evenodd" d="M128.674,139.227c-16.271,16.332-31.525,32.147-47.341,47.376
			c-16.675,16.057-42.004,8.654-47.122-13.486c-2.198-9.509,0.604-17.949,7.304-24.731c22.469-22.732,44.954-45.458,67.838-67.77
			c11.473-11.186,26.852-11.193,38.319-0.015c22.885,22.312,45.496,44.917,67.801,67.807c11.122,11.411,10.668,27.415-0.003,38.396
			c-10.911,11.228-27.315,11.798-39.056,0.445C160.403,171.768,144.978,155.685,128.674,139.227z M128.337,77.139
			c-14.528,0.095-25.171,10.985-24.954,25.539c0.209,14.147,10.688,24.567,24.851,24.709c14.547,0.15,25.396-10.549,25.425-25.072
			C153.685,87.758,142.906,77.042,128.337,77.139z"/>
		<path fill-rule="evenodd" clip-rule="evenodd" d="M61.38,67.646c0.054,14.283-10.988,25.33-25.268,25.28
			c-14.275-0.049-25.193-11.165-25.043-25.499C11.213,53.556,22,42.763,35.869,42.613C50.2,42.459,61.327,53.377,61.38,67.646z"/>
		<path fill-rule="evenodd" clip-rule="evenodd" d="M220.449,42.613c14.336-0.158,25.465,10.753,25.523,25.023
			c0.059,14.283-10.979,25.333-25.257,25.29c-13.93-0.044-24.807-10.705-25.055-24.559C195.404,53.999,206.213,42.77,220.449,42.613
			z"/>
		<path fill-rule="evenodd" clip-rule="evenodd" d="M129.225,168.423c9.77,9.872,20.179,20.393,30.65,30.977
			c-18.191,25.839-39.662,31.224-62.673,0.688C107.786,189.621,118.313,179.209,129.225,168.423z"/>
	</g>
	<g>
		<path fill-rule="evenodd" clip-rule="evenodd" d="M128.674,139.227c-16.271,16.332-31.525,32.147-47.341,47.376
			c-16.675,16.057-42.004,8.654-47.122-13.486c-2.198-9.509,0.604-17.949,7.304-24.731c22.469-22.732,44.954-45.458,67.838-67.77
			c11.473-11.186,26.852-11.193,38.319-0.015c22.885,22.312,45.496,44.917,67.801,67.807c11.122,11.411,10.668,27.415-0.003,38.396
			c-10.911,11.228-27.315,11.798-39.056,0.445C160.403,171.768,144.978,155.685,128.674,139.227z M128.337,77.139
			c-14.528,0.095-25.171,10.985-24.954,25.539c0.209,14.147,10.688,24.567,24.851,24.709c14.547,0.15,25.396-10.549,25.425-25.072
			C153.685,87.758,142.906,77.042,128.337,77.139z"/>
		<path fill-rule="evenodd" clip-rule="evenodd" d="M61.38,67.646c0.054,14.283-10.988,25.33-25.268,25.28
			c-14.275-0.049-25.193-11.165-25.043-25.499C11.213,53.556,22,42.763,35.869,42.613C50.2,42.459,61.327,53.377,61.38,67.646z"/>
		<path fill-rule="evenodd" clip-rule="evenodd" d="M220.449,42.613c14.336-0.158,25.465,10.753,25.523,25.023
			c0.059,14.283-10.979,25.333-25.257,25.29c-13.93-0.044-24.807-10.705-25.055-24.559C195.404,53.999,206.213,42.77,220.449,42.613
			z"/>
		<path fill-rule="evenodd" clip-rule="evenodd" d="M129.225,168.423c9.77,9.872,20.179,20.393,30.65,30.977
			c-18.191,25.839-39.662,31.224-62.673,0.688C107.786,189.621,118.313,179.209,129.225,168.423z"/>
	</g>
</g>
</svg>
