<?xml version="1.0" encoding="utf-8"?>
<!-- Generator: Adobe Illustrator 19.2.0, SVG Export Plug-In . SVG Version: 6.00 Build 0)  -->
<svg version="1.1" id="Layer_3" xmlns="http://www.w3.org/2000/svg" xmlns:xlink="http://www.w3.org/1999/xlink" x="0px" y="0px"
	 viewBox="0 0 256 256" style="enable-background:new 0 0 256 256;" xml:space="preserve">
<style type="text/css">
	.st0{fill:#E5E5E5;}
</style>
<g id="Layer_3_1_">
	<g>
		<path class="st0" d="M129,139c-12.9,12.9-24.9,25.4-37.4,37.4c-13.2,12.7-33.2,6.8-37.2-10.7c-1.7-7.5,0.5-14.2,5.8-19.5
			c17.8-18,35.5-35.9,53.6-53.6c9.1-8.8,21.2-8.8,30.3,0c18.1,17.6,36,35.5,53.6,53.6c8.8,9,8.4,21.7,0,30.3
			c-8.6,8.9-21.6,9.3-30.9,0.4C154,164.7,141.8,152,129,139z M128.7,89.9c-11.5,0.1-19.9,8.7-19.7,20.2c0.2,11.2,8.4,19.4,19.6,19.5
			c11.5,0.1,20.1-8.3,20.1-19.8C148.7,98.3,140.2,89.8,128.7,89.9z"/>
		<path class="st0" d="M75.8,82.4c0,11.3-8.7,20-20,20c-11.3,0-19.9-8.8-19.8-20.2c0.1-11,8.6-19.5,19.6-19.6
			C66.9,62.5,75.7,71.1,75.8,82.4z"/>
		<path class="st0" d="M201.5,62.6c11.3-0.1,20.1,8.5,20.2,19.8c0,11.3-8.7,20-20,20c-11,0-19.6-8.5-19.8-19.4
			C181.7,71.6,190.2,62.7,201.5,62.6z"/>
		<path class="st0" d="M129.4,162c7.7,7.8,15.9,16.1,24.2,24.5c-14.4,20.4-31.3,24.7-49.5,0.5C112.4,178.8,120.8,170.6,129.4,162z"
			/>
	</g>
	<g>
		<path class="st0" d="M129,139c-12.9,12.9-24.9,25.4-37.4,37.4c-13.2,12.7-33.2,6.8-37.2-10.7c-1.7-7.5,0.5-14.2,5.8-19.5
			c17.8-18,35.5-35.9,53.6-53.6c9.1-8.8,21.2-8.8,30.3,0c18.1,17.6,36,35.5,53.6,53.6c8.8,9,8.4,21.7,0,30.3
			c-8.6,8.9-21.6,9.3-30.9,0.4C154,164.7,141.8,152,129,139z M128.7,89.9c-11.5,0.1-19.9,8.7-19.7,20.2c0.2,11.2,8.4,19.4,19.6,19.5
			c11.5,0.1,20.1-8.3,20.1-19.8C148.7,98.3,140.2,89.8,128.7,89.9z"/>
		<path class="st0" d="M75.8,82.4c0,11.3-8.7,20-20,20c-11.3,0-19.9-8.8-19.8-20.2c0.1-11,8.6-19.5,19.6-19.6
			C66.9,62.5,75.7,71.1,75.8,82.4z"/>
		<path class="st0" d="M201.5,62.6c11.3-0.1,20.1,8.5,20.2,19.8c0,11.3-8.7,20-20,20c-11,0-19.6-8.5-19.8-19.4
			C181.7,71.6,190.2,62.7,201.5,62.6z"/>
		<path class="st0" d="M129.4,162c7.7,7.8,15.9,16.1,24.2,24.5c-14.4,20.4-31.3,24.7-49.5,0.5C112.4,178.8,120.8,170.6,129.4,162z"
			/>
	</g>
</g>
<polyline class="st0" points="4.3,81.7 4.3,3.7 82.3,3.7 "/>
<polyline class="st0" points="82.3,252.3 4.3,252.3 4.3,174.3 "/>
<polyline class="st0" points="253,174.3 253,252.3 175,252.3 "/>
<polyline class="st0" points="175,3.7 253,3.7 253,81.7 "/>
</svg>
