<?xml version="1.0" encoding="utf-8"?>
<!-- Generator: Adobe Illustrator 19.2.0, SVG Export Plug-In . SVG Version: 6.00 Build 0)  -->
<svg version="1.1" id="Layer_3" xmlns="http://www.w3.org/2000/svg" xmlns:xlink="http://www.w3.org/1999/xlink" x="0px" y="0px"
	 viewBox="0 0 256 256" style="enable-background:new 0 0 256 256;" xml:space="preserve">
<style type="text/css">
	.st0{fill:#E5E5E5;}
</style>
<g id="Layer_3_1_">
	<g>
		<path class="st0" d="M129.1,137.1c-8.4,8.4-16.2,16.5-24.3,24.3c-8.6,8.2-21.6,4.4-24.2-6.9c-1.1-4.9,0.3-9.2,3.7-12.7
			c11.5-11.7,23.1-23.3,34.8-34.8c5.9-5.7,13.8-5.7,19.7,0c11.7,11.5,23.4,23.1,34.8,34.8c5.7,5.9,5.5,14.1,0,19.7
			c-5.6,5.8-14,6.1-20,0.2C145.4,153.8,137.5,145.5,129.1,137.1z M128.9,105.2c-7.5,0-12.9,5.6-12.8,13.1
			c0.1,7.3,5.5,12.6,12.8,12.7c7.5,0.1,13-5.4,13-12.9C142,110.6,136.4,105.1,128.9,105.2z"/>
		<path class="st0" d="M94.6,100.3c0,7.3-5.6,13-13,13c-7.3,0-12.9-5.7-12.9-13.1c0.1-7.1,5.6-12.7,12.7-12.7
			C88.8,87.4,94.6,93,94.6,100.3z"/>
		<path class="st0" d="M176.2,87.5c7.4-0.1,13.1,5.5,13.1,12.8c0,7.3-5.6,13-13,13c-7.1,0-12.7-5.5-12.9-12.6
			C163.4,93.3,168.9,87.6,176.2,87.5z"/>
		<path class="st0" d="M129.4,152c5,5.1,10.4,10.5,15.7,15.9c-9.3,13.3-20.4,16-32.2,0.4C118.4,162.9,123.8,157.6,129.4,152z"/>
	</g>
	<g>
		<path class="st0" d="M129.1,137.1c-8.4,8.4-16.2,16.5-24.3,24.3c-8.6,8.2-21.6,4.4-24.2-6.9c-1.1-4.9,0.3-9.2,3.7-12.7
			c11.5-11.7,23.1-23.3,34.8-34.8c5.9-5.7,13.8-5.7,19.7,0c11.7,11.5,23.4,23.1,34.8,34.8c5.7,5.9,5.5,14.1,0,19.7
			c-5.6,5.8-14,6.1-20,0.2C145.4,153.8,137.5,145.5,129.1,137.1z M128.9,105.2c-7.5,0-12.9,5.6-12.8,13.1
			c0.1,7.3,5.5,12.6,12.8,12.7c7.5,0.1,13-5.4,13-12.9C142,110.6,136.4,105.1,128.9,105.2z"/>
		<path class="st0" d="M94.6,100.3c0,7.3-5.6,13-13,13c-7.3,0-12.9-5.7-12.9-13.1c0.1-7.1,5.6-12.7,12.7-12.7
			C88.8,87.4,94.6,93,94.6,100.3z"/>
		<path class="st0" d="M176.2,87.5c7.4-0.1,13.1,5.5,13.1,12.8c0,7.3-5.6,13-13,13c-7.1,0-12.7-5.5-12.9-12.6
			C163.4,93.3,168.9,87.6,176.2,87.5z"/>
		<path class="st0" d="M129.4,152c5,5.1,10.4,10.5,15.7,15.9c-9.3,13.3-20.4,16-32.2,0.4C118.4,162.9,123.8,157.6,129.4,152z"/>
	</g>
</g>
<polyline class="st0" points="82.3,3.7 82.3,81.7 4.3,81.7 "/>
<polyline class="st0" points="4.3,174.3 82.3,174.3 82.3,252.3 "/>
<polyline class="st0" points="175,252.3 175,174.3 253,174.3 "/>
<polyline class="st0" points="253,81.7 175,81.7 175,3.7 "/>
</svg>
