<svg xmlns="http://www.w3.org/2000/svg" viewBox="0 0 216.5 235">
  <title>mops_update_02</title>
  <g>
    <polygon points="216.5 83.5 107.25 0 0 83.5 42.5 83.5 42.5 235 174 235 174 83.5 216.5 83.5" fill="#ededed"/>
    <g>
      <path d="M127.59,173.07c-7.59,7.62-14.71,15-22.08,22.1-7.78,7.49-19.59,4-22-6.29a11.93,11.93,0,0,1,3.41-11.54c10.48-10.6,21-21.21,31.65-31.61,5.35-5.22,12.53-5.22,17.88,0q16,15.61,31.63,31.63a12.85,12.85,0,0,1-18.22,18.12C142.39,188.25,135.2,180.75,127.59,173.07Zm-0.16-29a11.72,11.72,0,1,0,11.81,11.74A11.41,11.41,0,0,0,127.43,144.11Z" transform="translate(-20 -8.5)"/>
      <path d="M96.2,139.68A11.74,11.74,0,1,1,84.3,128,11.57,11.57,0,0,1,96.2,139.68Z" transform="translate(-20 -8.5)"/>
      <path d="M170.41,128a11.74,11.74,0,1,1-11.56,12A11.56,11.56,0,0,1,170.41,128Z" transform="translate(-20 -8.5)"/>
      <path d="M127.85,186.69l14.3,14.45c-8.49,12.05-18.5,14.57-29.24.32Z" transform="translate(-20 -8.5)"/>
    </g>
    <g>
      <path d="M127.59,173.07c-7.59,7.62-14.71,15-22.08,22.1-7.78,7.49-19.59,4-22-6.29a11.93,11.93,0,0,1,3.41-11.54c10.48-10.6,21-21.21,31.65-31.61,5.35-5.22,12.53-5.22,17.88,0q16,15.61,31.63,31.63a12.85,12.85,0,0,1-18.22,18.12C142.39,188.25,135.2,180.75,127.59,173.07Zm-0.16-29a11.72,11.72,0,1,0,11.81,11.74A11.41,11.41,0,0,0,127.43,144.11Z" transform="translate(-20 -8.5)"/>
      <path d="M96.2,139.68A11.74,11.74,0,1,1,84.3,128,11.57,11.57,0,0,1,96.2,139.68Z" transform="translate(-20 -8.5)"/>
      <path d="M170.41,128a11.74,11.74,0,1,1-11.56,12A11.56,11.56,0,0,1,170.41,128Z" transform="translate(-20 -8.5)"/>
      <path d="M127.85,186.69l14.3,14.45c-8.49,12.05-18.5,14.57-29.24.32Z" transform="translate(-20 -8.5)"/>
    </g>
  </g>
</svg>
