<?xml version="1.0" encoding="utf-8"?>
<!-- Generator: Adobe Illustrator 16.0.0, SVG Export Plug-In . SVG Version: 6.00 Build 0)  -->
<!DOCTYPE svg PUBLIC "-//W3C//DTD SVG 1.1//EN" "http://www.w3.org/Graphics/SVG/1.1/DTD/svg11.dtd">
<svg version="1.1" id="Layer_3" xmlns="http://www.w3.org/2000/svg" xmlns:xlink="http://www.w3.org/1999/xlink" x="0px" y="0px"
	 width="256px" height="256px" viewBox="0 0 256 256" enable-background="new 0 0 256 256" xml:space="preserve">
<g id="Layer_3">
	<g>
		<g>
			<path fill-rule="evenodd" clip-rule="evenodd" d="M63.919,53.62c-7.311,7.338-14.164,14.445-21.271,21.287
				c-7.492,7.214-18.873,3.889-21.172-6.059c-0.987-4.272,0.271-8.065,3.282-11.112c10.096-10.214,20.198-20.425,30.48-30.45
				c5.155-5.026,12.064-5.029,17.217-0.006c10.283,10.025,20.442,20.182,30.464,30.466c4.997,5.127,4.793,12.318-0.001,17.251
				c-4.902,5.045-12.273,5.301-17.548,0.2C78.176,68.242,71.245,61.015,63.919,53.62z M63.768,25.724
				c-6.528,0.042-11.31,4.936-11.212,11.475c0.094,6.356,4.802,11.038,11.166,11.102c6.536,0.067,11.411-4.74,11.424-11.265
				C75.157,30.495,70.314,25.681,63.768,25.724z"/>
			<path fill-rule="evenodd" clip-rule="evenodd" d="M33.684,21.458c0.024,6.417-4.937,11.381-11.353,11.358
				C15.917,32.794,11.011,27.8,11.079,21.36c0.064-6.232,4.911-11.082,11.143-11.149C28.66,10.142,33.66,15.047,33.684,21.458z"/>
			<path fill-rule="evenodd" clip-rule="evenodd" d="M105.155,10.211c6.441-0.071,11.442,4.832,11.468,11.243
				c0.026,6.417-4.934,11.383-11.349,11.363c-6.258-0.02-11.145-4.81-11.256-11.035C93.902,15.327,98.759,10.281,105.155,10.211z"/>
			<path fill-rule="evenodd" clip-rule="evenodd" d="M64.167,66.738c4.39,4.436,9.067,9.163,13.771,13.919
				c-8.174,11.609-17.82,14.029-28.16,0.309C54.535,76.263,59.265,71.585,64.167,66.738z"/>
		</g>
		<g>
			<path fill-rule="evenodd" clip-rule="evenodd" d="M195.92,53.62c-7.311,7.338-14.164,14.445-21.271,21.287
				c-7.492,7.214-18.873,3.889-21.172-6.059c-0.988-4.272,0.271-8.065,3.281-11.112c10.096-10.214,20.198-20.425,30.48-30.45
				c5.154-5.026,12.064-5.029,17.217-0.006c10.283,10.025,20.442,20.182,30.465,30.466c4.996,5.127,4.793,12.318-0.002,17.251
				c-4.902,5.045-12.273,5.301-17.549,0.2C210.176,68.242,203.245,61.015,195.92,53.62z M195.768,25.724
				c-6.527,0.042-11.309,4.936-11.211,11.475c0.094,6.356,4.801,11.038,11.165,11.102c6.536,0.067,11.411-4.74,11.424-11.265
				C207.157,30.495,202.314,25.681,195.768,25.724z"/>
			<path fill-rule="evenodd" clip-rule="evenodd" d="M165.684,21.458c0.023,6.417-4.937,11.381-11.354,11.358
				c-6.414-0.022-11.318-5.017-11.252-11.457c0.064-6.232,4.912-11.082,11.143-11.149C160.66,10.142,165.66,15.047,165.684,21.458z"
				/>
			<path fill-rule="evenodd" clip-rule="evenodd" d="M237.155,10.211c6.441-0.071,11.442,4.832,11.468,11.243
				c0.026,6.417-4.934,11.383-11.349,11.363c-6.258-0.02-11.146-4.81-11.257-11.035C225.902,15.327,230.759,10.281,237.155,10.211z"
				/>
			<path fill-rule="evenodd" clip-rule="evenodd" d="M196.167,66.738c4.39,4.436,9.067,9.163,13.771,13.919
				c-8.174,11.609-17.82,14.029-28.159,0.309C186.535,76.263,191.265,71.585,196.167,66.738z"/>
		</g>
		<g>
			<path fill-rule="evenodd" clip-rule="evenodd" d="M63.919,212.313c-7.311,7.339-14.164,14.444-21.271,21.286
				c-7.492,7.215-18.873,3.889-21.172-6.059c-0.987-4.272,0.271-8.064,3.282-11.112c10.096-10.214,20.198-20.425,30.48-30.45
				c5.155-5.025,12.064-5.029,17.217-0.006c10.283,10.025,20.442,20.182,30.464,30.467c4.997,5.127,4.793,12.317-0.001,17.251
				c-4.902,5.045-12.273,5.301-17.548,0.2C78.176,226.936,71.245,219.709,63.919,212.313z M63.768,184.417
				c-6.528,0.042-11.31,4.936-11.212,11.476c0.094,6.355,4.802,11.037,11.166,11.102c6.536,0.067,11.411-4.74,11.424-11.266
				C75.157,189.188,70.314,184.374,63.768,184.417z"/>
			<path fill-rule="evenodd" clip-rule="evenodd" d="M33.684,180.152c0.024,6.416-4.937,11.381-11.353,11.357
				c-6.414-0.021-11.319-5.016-11.252-11.457c0.064-6.232,4.911-11.081,11.143-11.148C28.66,168.835,33.66,173.74,33.684,180.152z"
				/>
			<path fill-rule="evenodd" clip-rule="evenodd" d="M105.155,168.904c6.441-0.071,11.442,4.832,11.468,11.243
				c0.026,6.417-4.934,11.383-11.349,11.362c-6.258-0.02-11.145-4.809-11.256-11.034C93.902,174.02,98.759,168.975,105.155,168.904z
				"/>
			<path fill-rule="evenodd" clip-rule="evenodd" d="M64.167,225.432c4.39,4.436,9.067,9.163,13.771,13.919
				c-8.174,11.609-17.82,14.028-28.16,0.309C54.535,234.957,59.265,230.278,64.167,225.432z"/>
		</g>
		<g>
			<path fill-rule="evenodd" clip-rule="evenodd" d="M195.92,212.313c-7.311,7.339-14.164,14.444-21.271,21.286
				c-7.492,7.215-18.873,3.889-21.172-6.059c-0.988-4.272,0.271-8.064,3.281-11.112c10.096-10.214,20.198-20.425,30.48-30.45
				c5.154-5.025,12.064-5.029,17.217-0.006c10.283,10.025,20.442,20.182,30.465,30.467c4.996,5.127,4.793,12.317-0.002,17.251
				c-4.902,5.045-12.273,5.301-17.549,0.2C210.176,226.936,203.245,219.709,195.92,212.313z M195.768,184.417
				c-6.527,0.042-11.309,4.936-11.211,11.476c0.094,6.355,4.801,11.037,11.165,11.102c6.536,0.067,11.411-4.74,11.424-11.266
				C207.157,189.188,202.314,184.374,195.768,184.417z"/>
			<path fill-rule="evenodd" clip-rule="evenodd" d="M165.684,180.152c0.023,6.416-4.937,11.381-11.354,11.357
				c-6.414-0.021-11.318-5.016-11.252-11.457c0.064-6.232,4.912-11.081,11.143-11.148C160.66,168.835,165.66,173.74,165.684,180.152
				z"/>
			<path fill-rule="evenodd" clip-rule="evenodd" d="M237.155,168.904c6.441-0.071,11.442,4.832,11.468,11.243
				c0.026,6.417-4.934,11.383-11.349,11.362c-6.258-0.02-11.146-4.809-11.257-11.034
				C225.902,174.02,230.759,168.975,237.155,168.904z"/>
			<path fill-rule="evenodd" clip-rule="evenodd" d="M196.167,225.432c4.39,4.436,9.067,9.163,13.771,13.919
				c-8.174,11.609-17.82,14.028-28.159,0.309C186.535,234.957,191.265,230.278,196.167,225.432z"/>
		</g>
		<g>
			<path fill-rule="evenodd" clip-rule="evenodd" d="M130.781,134.62c-7.311,7.339-14.164,14.444-21.271,21.286
				c-7.492,7.215-18.873,3.889-21.172-6.059c-0.988-4.272,0.271-8.064,3.281-11.112c10.096-10.214,20.198-20.425,30.48-30.45
				c5.154-5.026,12.064-5.029,17.217-0.006c10.283,10.025,20.442,20.182,30.465,30.467c4.996,5.127,4.793,12.317-0.002,17.251
				c-4.902,5.045-12.273,5.301-17.549,0.2C145.037,149.242,138.106,142.016,130.781,134.62z M130.629,106.724
				c-6.527,0.042-11.309,4.936-11.211,11.475c0.094,6.356,4.801,11.038,11.165,11.102c6.536,0.067,11.411-4.74,11.424-11.265
				C142.019,111.495,137.176,106.681,130.629,106.724z"/>
			<path fill-rule="evenodd" clip-rule="evenodd" d="M100.545,102.458c0.023,6.417-4.937,11.381-11.354,11.358
				c-6.414-0.022-11.318-5.017-11.252-11.457c0.064-6.232,4.912-11.082,11.143-11.149C95.521,91.142,100.521,96.047,100.545,102.458
				z"/>
			<path fill-rule="evenodd" clip-rule="evenodd" d="M172.017,91.211c6.441-0.071,11.442,4.832,11.468,11.243
				c0.026,6.417-4.934,11.383-11.349,11.363c-6.258-0.02-11.146-4.81-11.257-11.035C160.764,96.327,165.62,91.281,172.017,91.211z"
				/>
			<path fill-rule="evenodd" clip-rule="evenodd" d="M131.028,147.738c4.39,4.436,9.067,9.163,13.771,13.919
				c-8.174,11.609-17.82,14.028-28.159,0.309C121.396,157.264,126.126,152.585,131.028,147.738z"/>
		</g>
		<g>
			<path fill-rule="evenodd" clip-rule="evenodd" d="M262.781,134.62c-7.311,7.339-14.164,14.444-21.271,21.286
				c-7.492,7.215-18.873,3.889-21.172-6.059c-0.988-4.272,0.271-8.064,3.281-11.112c10.096-10.214,20.198-20.425,30.48-30.45
				c5.154-5.026,12.064-5.029,17.217-0.006c10.283,10.025,20.442,20.182,30.465,30.467c4.996,5.127,4.793,12.317-0.002,17.251
				c-4.902,5.045-12.273,5.301-17.549,0.2C277.037,149.242,270.106,142.016,262.781,134.62z M262.629,106.724
				c-6.527,0.042-11.309,4.936-11.211,11.475c0.094,6.356,4.801,11.038,11.165,11.102c6.536,0.067,11.411-4.74,11.424-11.265
				C274.019,111.495,269.176,106.681,262.629,106.724z"/>
			<path fill-rule="evenodd" clip-rule="evenodd" d="M232.545,102.458c0.023,6.417-4.937,11.381-11.354,11.358
				c-6.414-0.022-11.318-5.017-11.252-11.457c0.064-6.232,4.912-11.082,11.143-11.149
				C227.521,91.142,232.521,96.047,232.545,102.458z"/>
			<path fill-rule="evenodd" clip-rule="evenodd" d="M304.017,91.211c6.441-0.071,11.442,4.832,11.468,11.243
				c0.026,6.417-4.934,11.383-11.349,11.363c-6.258-0.02-11.146-4.81-11.257-11.035C292.764,96.327,297.62,91.281,304.017,91.211z"
				/>
			<path fill-rule="evenodd" clip-rule="evenodd" d="M263.028,147.738c4.39,4.436,9.067,9.163,13.771,13.919
				c-8.174,11.609-17.82,14.028-28.159,0.309C253.396,157.264,258.126,152.585,263.028,147.738z"/>
		</g>
		<g>
			<path fill-rule="evenodd" clip-rule="evenodd" d="M-2.924,134.62c-7.311,7.339-14.164,14.444-21.271,21.286
				c-7.492,7.215-18.873,3.889-21.172-6.059c-0.988-4.272,0.271-8.064,3.281-11.112c10.096-10.214,20.198-20.425,30.48-30.45
				c5.154-5.026,12.064-5.029,17.217-0.006c10.283,10.025,20.442,20.182,30.465,30.467c4.996,5.127,4.793,12.317-0.002,17.251
				c-4.902,5.045-12.273,5.301-17.549,0.2C11.332,149.242,4.401,142.016-2.924,134.62z M-3.077,106.724
				c-6.527,0.042-11.309,4.936-11.211,11.475c0.094,6.356,4.801,11.038,11.165,11.102c6.536,0.067,11.411-4.74,11.424-11.265
				C8.313,111.495,3.47,106.681-3.077,106.724z"/>
			<path fill-rule="evenodd" clip-rule="evenodd" d="M-33.161,102.458c0.023,6.417-4.937,11.381-11.354,11.358
				c-6.414-0.022-11.318-5.017-11.252-11.457c0.064-6.232,4.912-11.082,11.143-11.149C-38.184,91.142-33.184,96.047-33.161,102.458z
				"/>
			<path fill-rule="evenodd" clip-rule="evenodd" d="M38.311,91.211c6.441-0.071,11.442,4.832,11.468,11.243
				c0.026,6.417-4.934,11.383-11.349,11.363c-6.258-0.02-11.146-4.81-11.257-11.035C27.058,96.327,31.915,91.281,38.311,91.211z"/>
			<path fill-rule="evenodd" clip-rule="evenodd" d="M-2.677,147.738c4.39,4.436,9.067,9.163,13.771,13.919
				c-8.174,11.609-17.82,14.028-28.159,0.309C-12.309,157.264-7.58,152.585-2.677,147.738z"/>
		</g>
	</g>
	<g>
		<g>
			<path fill-rule="evenodd" clip-rule="evenodd" fill="#E6E6E6" d="M63.919,53.62c-7.311,7.338-14.164,14.445-21.271,21.287
				c-7.492,7.214-18.873,3.889-21.172-6.059c-0.987-4.272,0.271-8.065,3.282-11.112c10.096-10.214,20.198-20.425,30.48-30.45
				c5.155-5.026,12.064-5.029,17.217-0.006c10.283,10.025,20.442,20.182,30.464,30.466c4.997,5.127,4.793,12.318-0.001,17.251
				c-4.902,5.045-12.273,5.301-17.548,0.2C78.176,68.242,71.245,61.015,63.919,53.62z M63.768,25.724
				c-6.528,0.042-11.31,4.936-11.212,11.475c0.094,6.356,4.802,11.038,11.166,11.102c6.536,0.067,11.411-4.74,11.424-11.265
				C75.157,30.495,70.314,25.681,63.768,25.724z"/>
			<path fill-rule="evenodd" clip-rule="evenodd" fill="#E6E6E6" d="M33.684,21.458c0.024,6.417-4.937,11.381-11.353,11.358
				C15.917,32.794,11.011,27.8,11.079,21.36c0.064-6.232,4.911-11.082,11.143-11.149C28.66,10.142,33.66,15.047,33.684,21.458z"/>
			<path fill-rule="evenodd" clip-rule="evenodd" fill="#E6E6E6" d="M105.155,10.211c6.441-0.071,11.442,4.832,11.468,11.243
				c0.026,6.417-4.934,11.383-11.349,11.363c-6.258-0.02-11.145-4.81-11.256-11.035C93.902,15.327,98.759,10.281,105.155,10.211z"/>
			<path fill-rule="evenodd" clip-rule="evenodd" fill="#E6E6E6" d="M64.167,66.738c4.39,4.436,9.067,9.163,13.771,13.919
				c-8.174,11.609-17.82,14.029-28.16,0.309C54.535,76.263,59.265,71.585,64.167,66.738z"/>
		</g>
		<g>
			<path fill-rule="evenodd" clip-rule="evenodd" fill="#E6E6E6" d="M195.92,53.62c-7.311,7.338-14.164,14.445-21.271,21.287
				c-7.492,7.214-18.873,3.889-21.172-6.059c-0.988-4.272,0.271-8.065,3.281-11.112c10.096-10.214,20.198-20.425,30.48-30.45
				c5.154-5.026,12.064-5.029,17.217-0.006c10.283,10.025,20.442,20.182,30.465,30.466c4.996,5.127,4.793,12.318-0.002,17.251
				c-4.902,5.045-12.273,5.301-17.549,0.2C210.176,68.242,203.245,61.015,195.92,53.62z M195.768,25.724
				c-6.527,0.042-11.309,4.936-11.211,11.475c0.094,6.356,4.801,11.038,11.165,11.102c6.536,0.067,11.411-4.74,11.424-11.265
				C207.157,30.495,202.314,25.681,195.768,25.724z"/>
			<path fill-rule="evenodd" clip-rule="evenodd" fill="#E6E6E6" d="M165.684,21.458c0.023,6.417-4.937,11.381-11.354,11.358
				c-6.414-0.022-11.318-5.017-11.252-11.457c0.064-6.232,4.912-11.082,11.143-11.149C160.66,10.142,165.66,15.047,165.684,21.458z"
				/>
			<path fill-rule="evenodd" clip-rule="evenodd" fill="#E6E6E6" d="M237.155,10.211c6.441-0.071,11.442,4.832,11.468,11.243
				c0.026,6.417-4.934,11.383-11.349,11.363c-6.258-0.02-11.146-4.81-11.257-11.035C225.902,15.327,230.759,10.281,237.155,10.211z"
				/>
			<path fill-rule="evenodd" clip-rule="evenodd" fill="#E6E6E6" d="M196.167,66.738c4.39,4.436,9.067,9.163,13.771,13.919
				c-8.174,11.609-17.82,14.029-28.159,0.309C186.535,76.263,191.265,71.585,196.167,66.738z"/>
		</g>
		<g>
			<path fill-rule="evenodd" clip-rule="evenodd" fill="#E6E6E6" d="M63.919,212.313c-7.311,7.339-14.164,14.444-21.271,21.286
				c-7.492,7.215-18.873,3.889-21.172-6.059c-0.987-4.272,0.271-8.064,3.282-11.112c10.096-10.214,20.198-20.425,30.48-30.45
				c5.155-5.025,12.064-5.029,17.217-0.006c10.283,10.025,20.442,20.182,30.464,30.467c4.997,5.127,4.793,12.317-0.001,17.251
				c-4.902,5.045-12.273,5.301-17.548,0.2C78.176,226.936,71.245,219.709,63.919,212.313z M63.768,184.417
				c-6.528,0.042-11.31,4.936-11.212,11.476c0.094,6.355,4.802,11.037,11.166,11.102c6.536,0.067,11.411-4.74,11.424-11.266
				C75.157,189.188,70.314,184.374,63.768,184.417z"/>
			<path fill-rule="evenodd" clip-rule="evenodd" fill="#E6E6E6" d="M33.684,180.152c0.024,6.416-4.937,11.381-11.353,11.357
				c-6.414-0.021-11.319-5.016-11.252-11.457c0.064-6.232,4.911-11.081,11.143-11.148C28.66,168.835,33.66,173.74,33.684,180.152z"
				/>
			<path fill-rule="evenodd" clip-rule="evenodd" fill="#E6E6E6" d="M105.155,168.904c6.441-0.071,11.442,4.832,11.468,11.243
				c0.026,6.417-4.934,11.383-11.349,11.362c-6.258-0.02-11.145-4.809-11.256-11.034C93.902,174.02,98.759,168.975,105.155,168.904z
				"/>
			<path fill-rule="evenodd" clip-rule="evenodd" fill="#E6E6E6" d="M64.167,225.432c4.39,4.436,9.067,9.163,13.771,13.919
				c-8.174,11.609-17.82,14.028-28.16,0.309C54.535,234.957,59.265,230.278,64.167,225.432z"/>
		</g>
		<g>
			<path fill-rule="evenodd" clip-rule="evenodd" fill="#E6E6E6" d="M195.92,212.313c-7.311,7.339-14.164,14.444-21.271,21.286
				c-7.492,7.215-18.873,3.889-21.172-6.059c-0.988-4.272,0.271-8.064,3.281-11.112c10.096-10.214,20.198-20.425,30.48-30.45
				c5.154-5.025,12.064-5.029,17.217-0.006c10.283,10.025,20.442,20.182,30.465,30.467c4.996,5.127,4.793,12.317-0.002,17.251
				c-4.902,5.045-12.273,5.301-17.549,0.2C210.176,226.936,203.245,219.709,195.92,212.313z M195.768,184.417
				c-6.527,0.042-11.309,4.936-11.211,11.476c0.094,6.355,4.801,11.037,11.165,11.102c6.536,0.067,11.411-4.74,11.424-11.266
				C207.157,189.188,202.314,184.374,195.768,184.417z"/>
			<path fill-rule="evenodd" clip-rule="evenodd" fill="#E6E6E6" d="M165.684,180.152c0.023,6.416-4.937,11.381-11.354,11.357
				c-6.414-0.021-11.318-5.016-11.252-11.457c0.064-6.232,4.912-11.081,11.143-11.148C160.66,168.835,165.66,173.74,165.684,180.152
				z"/>
			<path fill-rule="evenodd" clip-rule="evenodd" fill="#E6E6E6" d="M237.155,168.904c6.441-0.071,11.442,4.832,11.468,11.243
				c0.026,6.417-4.934,11.383-11.349,11.362c-6.258-0.02-11.146-4.809-11.257-11.034
				C225.902,174.02,230.759,168.975,237.155,168.904z"/>
			<path fill-rule="evenodd" clip-rule="evenodd" fill="#E6E6E6" d="M196.167,225.432c4.39,4.436,9.067,9.163,13.771,13.919
				c-8.174,11.609-17.82,14.028-28.159,0.309C186.535,234.957,191.265,230.278,196.167,225.432z"/>
		</g>
		<g>
			<path fill-rule="evenodd" clip-rule="evenodd" fill="#E6E6E6" d="M130.781,134.62c-7.311,7.339-14.164,14.444-21.271,21.286
				c-7.492,7.215-18.873,3.889-21.172-6.059c-0.988-4.272,0.271-8.064,3.281-11.112c10.096-10.214,20.198-20.425,30.48-30.45
				c5.154-5.026,12.064-5.029,17.217-0.006c10.283,10.025,20.442,20.182,30.465,30.467c4.996,5.127,4.793,12.317-0.002,17.251
				c-4.902,5.045-12.273,5.301-17.549,0.2C145.037,149.242,138.106,142.016,130.781,134.62z M130.629,106.724
				c-6.527,0.042-11.309,4.936-11.211,11.475c0.094,6.356,4.801,11.038,11.165,11.102c6.536,0.067,11.411-4.74,11.424-11.265
				C142.019,111.495,137.176,106.681,130.629,106.724z"/>
			<path fill-rule="evenodd" clip-rule="evenodd" fill="#E6E6E6" d="M100.545,102.458c0.023,6.417-4.937,11.381-11.354,11.358
				c-6.414-0.022-11.318-5.017-11.252-11.457c0.064-6.232,4.912-11.082,11.143-11.149C95.521,91.142,100.521,96.047,100.545,102.458
				z"/>
			<path fill-rule="evenodd" clip-rule="evenodd" fill="#E6E6E6" d="M172.017,91.211c6.441-0.071,11.442,4.832,11.468,11.243
				c0.026,6.417-4.934,11.383-11.349,11.363c-6.258-0.02-11.146-4.81-11.257-11.035C160.764,96.327,165.62,91.281,172.017,91.211z"
				/>
			<path fill-rule="evenodd" clip-rule="evenodd" fill="#E6E6E6" d="M131.028,147.738c4.39,4.436,9.067,9.163,13.771,13.919
				c-8.174,11.609-17.82,14.028-28.159,0.309C121.396,157.264,126.126,152.585,131.028,147.738z"/>
		</g>
		<g>
			<path fill-rule="evenodd" clip-rule="evenodd" fill="#E6E6E6" d="M262.781,134.62c-7.311,7.339-14.164,14.444-21.271,21.286
				c-7.492,7.215-18.873,3.889-21.172-6.059c-0.988-4.272,0.271-8.064,3.281-11.112c10.096-10.214,20.198-20.425,30.48-30.45
				c5.154-5.026,12.064-5.029,17.217-0.006c10.283,10.025,20.442,20.182,30.465,30.467c4.996,5.127,4.793,12.317-0.002,17.251
				c-4.902,5.045-12.273,5.301-17.549,0.2C277.037,149.242,270.106,142.016,262.781,134.62z M262.629,106.724
				c-6.527,0.042-11.309,4.936-11.211,11.475c0.094,6.356,4.801,11.038,11.165,11.102c6.536,0.067,11.411-4.74,11.424-11.265
				C274.019,111.495,269.176,106.681,262.629,106.724z"/>
			<path fill-rule="evenodd" clip-rule="evenodd" fill="#E6E6E6" d="M232.545,102.458c0.023,6.417-4.937,11.381-11.354,11.358
				c-6.414-0.022-11.318-5.017-11.252-11.457c0.064-6.232,4.912-11.082,11.143-11.149
				C227.521,91.142,232.521,96.047,232.545,102.458z"/>
			<path fill-rule="evenodd" clip-rule="evenodd" fill="#E6E6E6" d="M304.017,91.211c6.441-0.071,11.442,4.832,11.468,11.243
				c0.026,6.417-4.934,11.383-11.349,11.363c-6.258-0.02-11.146-4.81-11.257-11.035C292.764,96.327,297.62,91.281,304.017,91.211z"
				/>
			<path fill-rule="evenodd" clip-rule="evenodd" fill="#E6E6E6" d="M263.028,147.738c4.39,4.436,9.067,9.163,13.771,13.919
				c-8.174,11.609-17.82,14.028-28.159,0.309C253.396,157.264,258.126,152.585,263.028,147.738z"/>
		</g>
		<g>
			<path fill-rule="evenodd" clip-rule="evenodd" fill="#E6E6E6" d="M-2.924,134.62c-7.311,7.339-14.164,14.444-21.271,21.286
				c-7.492,7.215-18.873,3.889-21.172-6.059c-0.988-4.272,0.271-8.064,3.281-11.112c10.096-10.214,20.198-20.425,30.48-30.45
				c5.154-5.026,12.064-5.029,17.217-0.006c10.283,10.025,20.442,20.182,30.465,30.467c4.996,5.127,4.793,12.317-0.002,17.251
				c-4.902,5.045-12.273,5.301-17.549,0.2C11.332,149.242,4.401,142.016-2.924,134.62z M-3.077,106.724
				c-6.527,0.042-11.309,4.936-11.211,11.475c0.094,6.356,4.801,11.038,11.165,11.102c6.536,0.067,11.411-4.74,11.424-11.265
				C8.313,111.495,3.47,106.681-3.077,106.724z"/>
			<path fill-rule="evenodd" clip-rule="evenodd" fill="#E6E6E6" d="M-33.161,102.458c0.023,6.417-4.937,11.381-11.354,11.358
				c-6.414-0.022-11.318-5.017-11.252-11.457c0.064-6.232,4.912-11.082,11.143-11.149C-38.184,91.142-33.184,96.047-33.161,102.458z
				"/>
			<path fill-rule="evenodd" clip-rule="evenodd" fill="#E6E6E6" d="M38.311,91.211c6.441-0.071,11.442,4.832,11.468,11.243
				c0.026,6.417-4.934,11.383-11.349,11.363c-6.258-0.02-11.146-4.81-11.257-11.035C27.058,96.327,31.915,91.281,38.311,91.211z"/>
			<path fill-rule="evenodd" clip-rule="evenodd" fill="#E6E6E6" d="M-2.677,147.738c4.39,4.436,9.067,9.163,13.771,13.919
				c-8.174,11.609-17.82,14.028-28.159,0.309C-12.309,157.264-7.58,152.585-2.677,147.738z"/>
		</g>
	</g>
</g>
</svg>
